<?xml version="1.0" encoding="utf-8"?>
<!-- Generator: Adobe Illustrator 24.0.1, SVG Export Plug-In . SVG Version: 6.00 Build 0)  -->
<svg version="1.1" id="Capa_1" xmlns="http://www.w3.org/2000/svg" xmlns:xlink="http://www.w3.org/1999/xlink" x="0px" y="0px"
	 viewBox="0 0 285 90" style="enable-background:new 0 0 285 90;" xml:space="preserve">
<style type="text/css">
	.st0{fill:#FFFFFF;}
</style>
<g>
	<g>
		<g>
			<path class="st0" d="M107.6,41.5H121V29.2h4.7v31.3H121V45.9h-13.5v14.6h-4.7V29.2h4.7V41.5z"/>
			<path class="st0" d="M130.7,44.7c0-4.4,1.6-8.2,4.8-11.3c3.2-3.2,7.1-4.7,11.6-4.7c4.5,0,8.3,1.6,11.5,4.8
				c3.2,3.2,4.8,7,4.8,11.5c0,4.5-1.6,8.3-4.8,11.4c-3.2,3.1-7.1,4.7-11.7,4.7c-4,0-7.7-1.4-10.9-4.2
				C132.4,53.8,130.7,49.7,130.7,44.7z M135.4,44.8c0,3.5,1.2,6.3,3.5,8.5c2.3,2.2,5,3.3,8,3.3c3.3,0,6-1.1,8.3-3.4
				c2.3-2.3,3.4-5.1,3.4-8.4c0-3.3-1.1-6.1-3.3-8.4c-2.2-2.3-5-3.4-8.2-3.4c-3.3,0-6,1.1-8.2,3.4C136.5,38.7,135.4,41.5,135.4,44.8z
				"/>
			<path class="st0" d="M173,29.2v26.8h9.2v4.4h-13.9V29.2H173z"/>
			<path class="st0" d="M190.3,29.2v31.3h-4.7V29.2H190.3z"/>
			<path class="st0" d="M214.5,33.9l-3.8,2.3c-0.7-1.2-1.4-2.1-2-2.4c-0.7-0.4-1.5-0.6-2.6-0.6c-1.3,0-2.4,0.4-3.3,1.1
				c-0.9,0.7-1.3,1.6-1.3,2.8c0,1.5,1.1,2.8,3.4,3.7l3.1,1.3c2.5,1,4.4,2.3,5.6,3.8c1.2,1.5,1.8,3.3,1.8,5.4c0,2.9-1,5.3-2.9,7.1
				c-1.9,1.9-4.3,2.8-7.2,2.8c-2.7,0-5-0.8-6.7-2.4c-1.7-1.6-2.8-3.9-3.3-6.8l4.8-1.1c0.2,1.8,0.6,3.1,1.1,3.8c1,1.4,2.4,2,4.3,2
				c1.5,0,2.7-0.5,3.7-1.5c1-1,1.5-2.2,1.5-3.7c0-0.6-0.1-1.2-0.3-1.7c-0.2-0.5-0.4-1-0.8-1.4c-0.4-0.4-0.8-0.8-1.4-1.2
				c-0.6-0.4-1.2-0.7-2-1.1l-3-1.3c-4.3-1.8-6.4-4.5-6.4-7.9c0-2.3,0.9-4.3,2.7-5.9c1.8-1.6,4-2.4,6.7-2.4
				C209.6,28.6,212.4,30.4,214.5,33.9z"/>
			<path class="st0" d="M229.1,33.7v26.8h-4.7V33.7h-7.2v-4.4h19.1v4.4H229.1z"/>
			<path class="st0" d="M244.2,29.2v31.3h-4.7V29.2H244.2z"/>
			<path class="st0" d="M273.8,30.9v5.6c-2.7-2.3-5.5-3.4-8.5-3.4c-3.2,0-5.9,1.2-8.1,3.5c-2.2,2.3-3.3,5.1-3.3,8.4
				c0,3.3,1.1,6,3.3,8.3c2.2,2.3,4.9,3.4,8.1,3.4c1.7,0,3.1-0.3,4.2-0.8c0.6-0.3,1.3-0.6,2-1.1c0.7-0.5,1.4-1,2.2-1.7v5.7
				c-2.7,1.5-5.5,2.3-8.5,2.3c-4.5,0-8.3-1.6-11.4-4.7c-3.1-3.1-4.7-6.9-4.7-11.4c0-4,1.3-7.5,3.9-10.7c3.2-3.8,7.4-5.7,12.6-5.7
				C268.4,28.6,271.2,29.4,273.8,30.9z"/>
		</g>
		<g>
			<path class="st0" d="M110.3,19.5h-4.4l-1.2,2.5H103l5.1-11l4.9,11h-1.7L110.3,19.5z M109.6,18l-1.5-3.5l-1.6,3.5H109.6z"/>
			<path class="st0" d="M117.4,22l2.2-11.1l3.5,8l3.7-8l2,11.1h-1.6l-1-6.2l-3.1,6.7l-3-6.7L119,22H117.4z"/>
			<path class="st0" d="M140.1,13.1H136v2.5h4v1.5h-4v3.5h4.1V22h-5.7V11.7h5.7V13.1z"/>
			<path class="st0" d="M149.1,17.6l3.2,4.4h-1.9l-3-4.2h-0.3V22h-1.6V11.7h1.8c1.4,0,2.4,0.3,3,0.8c0.7,0.6,1,1.3,1,2.3
				c0,0.7-0.2,1.4-0.6,1.9C150.3,17.1,149.8,17.5,149.1,17.6z M147.1,16.4h0.5c1.5,0,2.2-0.6,2.2-1.7c0-1.1-0.7-1.6-2.2-1.6h-0.6
				V16.4z"/>
			<path class="st0" d="M158.8,11.7V22h-1.6V11.7H158.8z"/>
			<path class="st0" d="M172.4,12.2v1.8c-0.9-0.8-1.8-1.1-2.8-1.1c-1.1,0-2,0.4-2.7,1.1c-0.7,0.8-1.1,1.7-1.1,2.8
				c0,1.1,0.4,2,1.1,2.7c0.7,0.7,1.6,1.1,2.7,1.1c0.5,0,1-0.1,1.4-0.3c0.2-0.1,0.4-0.2,0.7-0.4c0.2-0.2,0.5-0.3,0.7-0.5v1.9
				c-0.9,0.5-1.8,0.8-2.8,0.8c-1.5,0-2.7-0.5-3.8-1.5c-1-1-1.6-2.3-1.6-3.8c0-1.3,0.4-2.5,1.3-3.5c1.1-1.3,2.5-1.9,4.2-1.9
				C170.6,11.5,171.5,11.7,172.4,12.2z"/>
			<path class="st0" d="M184.1,19.5h-4.4l-1.2,2.5h-1.7l5.1-11l4.9,11h-1.7L184.1,19.5z M183.5,18l-1.5-3.5l-1.6,3.5H183.5z"/>
			<path class="st0" d="M191.6,22V11l7.5,7.9v-7.2h1.6v11l-7.5-7.9V22H191.6z"/>
		</g>
		<g>
			<path class="st0" d="M235.3,68.6v1.9c-0.9-0.8-1.9-1.2-2.9-1.2c-1.1,0-2.1,0.4-2.8,1.2c-0.8,0.8-1.2,1.8-1.2,2.9
				c0,1.1,0.4,2.1,1.2,2.9c0.8,0.8,1.7,1.2,2.8,1.2c0.6,0,1.1-0.1,1.5-0.3c0.2-0.1,0.5-0.2,0.7-0.4c0.2-0.2,0.5-0.4,0.8-0.6v2
				c-0.9,0.5-1.9,0.8-3,0.8c-1.6,0-2.9-0.5-4-1.6c-1.1-1.1-1.6-2.4-1.6-4c0-1.4,0.5-2.6,1.4-3.7c1.1-1.3,2.6-2,4.4-2
				C233.4,67.8,234.4,68.1,235.3,68.6z"/>
			<path class="st0" d="M247.6,76.3h-4.7l-1.2,2.6H240l5.4-11.6l5.2,11.6h-1.8L247.6,76.3z M246.9,74.7l-1.6-3.7l-1.7,3.7H246.9z"/>
			<path class="st0" d="M259.2,74.3l3.4,4.6h-2l-3.1-4.4h-0.3v4.4h-1.6V68h1.9c1.4,0,2.5,0.3,3.1,0.8c0.7,0.6,1.1,1.4,1.1,2.4
				c0,0.8-0.2,1.4-0.7,2C260.5,73.8,259.9,74.1,259.2,74.3z M257.1,73h0.5c1.6,0,2.3-0.6,2.3-1.8c0-1.1-0.8-1.7-2.3-1.7h-0.6V73z"/>
			<path class="st0" d="M273.8,69.6h-4.4v2.6h4.2v1.5h-4.2v3.6h4.4v1.5h-6V68h6V69.6z"/>
		</g>
	</g>
	<path class="st0" d="M56.9,0.9H31.4C14.1,0.9,0,14.9,0,32.2v25.5c0,17.3,14.1,31.4,31.4,31.4h25.5c17.3,0,31.4-14.1,31.4-31.4V32.2
		C88.3,14.9,74.2,0.9,56.9,0.9z M71.6,27.3c0.2,0.7,0.2,1.5,0.1,2.2c-0.2,2-1.1,3.8-2.7,5.2c-1.5,1.3-3.5,1.9-5.5,1.8
		c-0.5,0-1.1-0.2-1.7-0.3c-0.1-0.2-0.1-0.3-0.2-0.5c-0.1-0.1-0.1-0.3-0.2-0.4l-0.1-0.3c-0.1-0.1-0.1-0.2-0.2-0.4
		c-0.1-0.2-0.2-0.3-0.3-0.5l-0.1-0.2c-0.1-0.1-0.1-0.2-0.2-0.3c-0.1-0.2-0.3-0.4-0.4-0.6l-0.1-0.1c0-0.1-0.1-0.1-0.1-0.2
		c-0.2-0.2-0.4-0.5-0.6-0.7l-0.1-0.1c-0.2-0.2-0.4-0.5-0.7-0.7L58.6,31c-0.2-0.2-0.3-0.3-0.5-0.5c2-1.6,3.5-3.9,4-6.4
		c0.6-2.6,0.2-5.4-1-7.7C65.7,19,69.4,22.8,71.6,27.3z M41.7,41.6c-1.7,0.5-3.3,1.6-4.3,3.1c-0.2-1.1-0.3-2.2-0.3-3.3l0-0.1l0-0.1
		l0-0.2c0-0.4,0-0.9,0.1-1.4c0.1-0.6,0.2-1.3,0.4-1.9c1.2-0.7,2.6-0.9,4-0.6c0.2,0.1,0.5,0.1,0.8,0.2c-0.4,1.2-0.6,2.3-0.6,3.6
		C41.7,41.2,41.7,41.4,41.7,41.6z M41.9,35.3c-0.6-0.1-1.1-0.2-1.7-0.2c-0.6,0-1.2,0.1-1.7,0.2c1.3-2.3,3.4-4.2,5.8-5.3
		c0.9,0.4,1.7,1.1,2.3,1.9c-1.5,0.9-2.7,2.2-3.6,3.7C42.7,35.5,42.3,35.4,41.9,35.3z M45.2,37.6c1.3-1.3,3.4-1.2,4.7,0.1
		c0.3,0.3,0.5,0.7,0.7,1.1c-1.2-0.5-2.6-0.3-3.6,0.7c-1,1-1.3,2.4-0.8,3.6c-0.4-0.2-0.8-0.4-1.1-0.7C43.9,41,43.9,38.9,45.2,37.6z
		 M56.4,36.9c-0.3-1.3-1.4-2.3-2.7-2.5c0.3-0.2,0.7-0.4,1.2-0.5c1.8-0.4,3.6,0.7,4,2.5c0.4,1.8-0.7,3.6-2.5,4
		c-0.4,0.1-0.9,0.1-1.3,0C56.2,39.6,56.8,38.3,56.4,36.9z M54,37.1c-0.1,0.4-0.3,0.8-0.6,1.1c-0.1-1.3-1-2.4-2.3-2.8
		c-1.3-0.4-2.7,0.1-3.5,1.1c0-0.4,0-0.9,0.1-1.3c0.5-1.8,2.4-2.7,4.1-2.2S54.5,35.3,54,37.1z M48.4,31c-0.4-0.7-1-1.2-1.6-1.7
		c0.7-0.1,1.5-0.2,2.2-0.2l0.3,0c1.9,0,3.7,0.5,5.3,1.4C52.5,30.1,50.3,30.2,48.4,31z M48.4,41.4c0.4-0.1,0.9-0.1,1.3,0
		c-1.1,0.8-1.6,2.1-1.3,3.4c0.3,1.3,1.4,2.3,2.7,2.5c-0.3,0.2-0.7,0.4-1.2,0.5c-1.8,0.4-3.6-0.7-4-2.5S46.6,41.8,48.4,41.4z
		 M50.9,44.6c0.1-0.4,0.3-0.8,0.6-1.1c0.1,1.3,1,2.4,2.3,2.8c1.3,0.4,2.7-0.1,3.5-1.1c0,0.4,0,0.9-0.1,1.3c-0.5,1.8-2.4,2.7-4.1,2.2
		C51.4,48.2,50.4,46.4,50.9,44.6z M55,44.1c-0.3-0.3-0.5-0.7-0.7-1.1c1.2,0.5,2.6,0.3,3.6-0.7c1-1,1.3-2.4,0.8-3.6
		c0.4,0.2,0.8,0.4,1.1,0.7c1.3,1.3,1.2,3.4-0.1,4.7C58.3,45.4,56.2,45.4,55,44.1z M50.9,13.1c2.3,0.3,4.5,0.8,6.6,1.6
		c2.5,2.3,3.6,5.7,2.8,9c-0.5,2.3-1.9,4.3-3.8,5.7c-1.9-1.2-4-1.9-6.4-2.1c-1.7-6.1-6.7-10.9-12.8-12.2c-0.8-0.2-1.7-0.3-2.5-0.4
		C39.5,12.8,44.8,12.3,50.9,13.1z M30.3,16.9c2.2-0.5,4.4-0.5,6.6,0c5.2,1.2,9.6,5.2,11.2,10.3c-4,0.3-7.8,2.3-10.2,5.6
		c-1.6-0.8-3.3-1.5-5-1.9c-5.8-1.3-11.7,0.1-16.4,3.7C19.3,27,24.2,20.6,30.3,16.9z M19.7,65.7c0,0.3,0,0.6,0,1
		c-3.6-5.6-5.4-12-5.4-18.7c0-0.3,0-0.7,0-1l0-0.4c0.1-2.8,0.5-5.6,1.2-8.3c1.4-1.6,3.1-2.9,5.1-3.9c3.7-1.9,7.9-2.4,12-1.5
		c0.3,0.1,0.7,0.2,1.1,0.3c1.2,0.3,2.3,0.8,3.3,1.3c-0.6,1.1-1,2.2-1.3,3.4c-0.1,0.6-0.2,1.1-0.3,1.6l0,0c-0.1,0.5-0.1,1.1-0.1,1.7
		l0,0.2c0,0.5,0,1,0.1,1.5c0,0.3,0,0.6-0.1,0.9c-0.3,1-0.8,2-1.4,2.9c-1,1.5-2.4,2.8-4,3.7l-0.6,0.3l0,0c-4.6,2.7-7.9,7.2-9.1,12.4
		C19.9,63.9,19.7,64.8,19.7,65.7z M30.3,75.7c-2.5-2.2-5.9-5.6-7.6-8.6c0.1-0.9,0.3-1.7,0.6-2.5c1.6-5.3,5.5-9.6,10.6-11.8l0.6-0.3
		l0,0c1.1-0.6,2.2-1.4,3.1-2.3c-0.1,2.4-3.6,5.7-6,12C29,69.2,30.3,75.7,30.3,75.7z M40.7,76.9c-0.1,0-0.2,0-0.3,0
		c-4.6-0.3-7.1-5.5-4.6-9.4l6.2-9.7c0,0-1.9,6.7-2.3,12.6C39.3,76.3,40.7,76.9,40.7,76.9z M43.1,54.9c-2.2-2-3.9-4.5-5-7.4
		c0.5-1.9,2-3.4,3.8-4c0.5,2.1,1.6,3.9,3.2,5.4c-1,1-1.7,2.3-2,3.6C43.1,53.3,43,54.1,43.1,54.9z M51.5,77.7c-3.8,0.8-7.1-2.8-6-6.6
		l2.7-9.4c0,0,0,6,1.1,10.9c1.1,4.9,2.4,5.1,2.4,5.1C51.7,77.6,51.6,77.7,51.5,77.7z M45.6,56.8c-0.6-1.2-0.8-2.5-0.5-3.8
		c0.2-1.1,0.8-2.1,1.7-2.9c2.5,1.6,5.6,2,8.6,1.2c-0.1,1.6,0.3,3.3,1.2,4.7c0.9,1.4,2.1,2.4,3.6,3C55.3,60.3,49.9,59.5,45.6,56.8z
		 M61.5,72.9c-2.6,1-5.4-1-5.4-3.8l0-6.1c0.1,0.1,0.1,0.2,0.2,0.3c0.4,1.2,1.4,4.2,2.4,6.2c1.3,2.4,3,3.4,3,3.4
		C61.6,72.9,61.5,72.9,61.5,72.9z M68.5,64.9c-1.2,1-3.1,0.5-3.7-1l-0.7-1.8c0,0,1.2,1.3,2.3,2C67.5,64.8,68.5,64.9,68.5,64.9
		C68.5,64.9,68.5,64.9,68.5,64.9z M64.7,56.9c-0.3,0.2-0.7,0.4-1,0.6c-0.7,0.1-1.3,0.1-2-0.1c-1.5-0.3-2.8-1.2-3.6-2.5
		c-0.8-1.3-1.1-2.8-0.8-4.3c0-0.1,0-0.1,0-0.2c1.9-1,3.4-2.6,4.4-4.5c1.2,1.9,3.1,3.2,5.4,3.6c1.6,0.2,3.3-0.1,4.7-0.8
		C70.5,52,67.9,55,64.7,56.9z M73.6,44.1c-0.4,1-1,1.8-1.9,2.4c-1.2,0.9-2.7,1.3-4.2,1.1c-2.3-0.3-4.2-2.1-4.7-4.3
		c0.2-0.8,0.3-1.6,0.3-2.3c0-0.9-0.1-1.8-0.3-2.7c0.2,0,0.5,0.1,0.7,0.1c4.5,0.4,8.5-2.4,9.8-6.5c0.3,1.4,0.6,2.7,0.7,4.1l0.2,0
		l-0.2,0C73.9,36,74.5,39.9,73.6,44.1z"/>
</g>
</svg>
